<svg xmlns="http://www.w3.org/2000/svg" xmlns:xlink="http://www.w3.org/1999/xlink" width="330" zoomAndPan="magnify" viewBox="0 0 247.5 374.999991" height="500" preserveAspectRatio="xMidYMid meet" version="1.0"><defs><clipPath id="47ff1e5a3f"><path d="M 123.511719 187.476562 L 124 187.476562 L 124 188 L 123.511719 188 Z M 123.511719 187.476562 " clip-rule="nonzero"/></clipPath><clipPath id="0a6fa0e233"><path d="M 123.511719 187.476562 L 124.261719 187.476562 L 124.261719 188 L 123.511719 188 Z M 123.511719 187.476562 " clip-rule="nonzero"/></clipPath><clipPath id="20dfa147aa"><path d="M 123.511719 187.476562 L 124 187.476562 L 124 188 L 123.511719 188 Z M 123.511719 187.476562 " clip-rule="nonzero"/></clipPath><clipPath id="b75cbf1c5c"><path d="M 124 187.476562 L 124.261719 187.476562 L 124.261719 188.226562 L 124 188.226562 Z M 124 187.476562 " clip-rule="nonzero"/></clipPath><clipPath id="574dd5137c"><path d="M 123.511719 188 L 124.261719 188 L 124.261719 188.226562 L 123.511719 188.226562 Z M 123.511719 188 " clip-rule="nonzero"/></clipPath><clipPath id="831b49e342"><path d="M 12 1.238281 L 96 1.238281 L 96 84 L 12 84 Z M 12 1.238281 " clip-rule="nonzero"/></clipPath><clipPath id="fe7e51f0d9"><path d="M 192 254 L 247 254 L 247 311 L 192 311 Z M 192 254 " clip-rule="nonzero"/></clipPath><clipPath id="f8d7c19e0d"><path d="M 137 336 L 175 336 L 175 373.988281 L 137 373.988281 Z M 137 336 " clip-rule="nonzero"/></clipPath></defs><g clip-path="url(#47ff1e5a3f)"><path fill="#02b79c" d="M 123.679688 187.902344 L 123.679688 187.964844 C 123.679688 187.976562 123.660156 187.988281 123.640625 187.988281 L 123.550781 187.988281 C 123.53125 187.988281 123.511719 187.976562 123.511719 187.964844 L 123.511719 187.902344 C 123.511719 187.890625 123.53125 187.878906 123.550781 187.878906 L 123.640625 187.878906 C 123.660156 187.878906 123.679688 187.890625 123.679688 187.902344 Z M 123.519531 187.964844 C 123.519531 187.972656 123.535156 187.984375 123.550781 187.984375 L 123.640625 187.984375 C 123.65625 187.984375 123.667969 187.972656 123.667969 187.964844 L 123.667969 187.902344 C 123.667969 187.894531 123.65625 187.882812 123.640625 187.882812 L 123.550781 187.882812 C 123.535156 187.882812 123.519531 187.894531 123.519531 187.902344 Z M 123.519531 187.964844 " fill-opacity="1" fill-rule="nonzero"/></g><g clip-path="url(#0a6fa0e233)"><path fill="#02b79c" d="M 124.144531 187.710938 L 124.144531 187.820312 C 124.144531 187.84375 124.113281 187.863281 124.074219 187.863281 L 123.910156 187.863281 C 123.875 187.863281 123.84375 187.84375 123.84375 187.820312 L 123.84375 187.710938 C 123.84375 187.683594 123.875 187.664062 123.910156 187.664062 L 124.074219 187.664062 C 124.113281 187.664062 124.144531 187.683594 124.144531 187.710938 Z M 123.851562 187.820312 C 123.851562 187.839844 123.878906 187.859375 123.910156 187.859375 L 124.074219 187.859375 C 124.109375 187.859375 124.132812 187.839844 124.132812 187.820312 L 124.132812 187.710938 C 124.132812 187.6875 124.109375 187.671875 124.074219 187.671875 L 123.910156 187.671875 C 123.878906 187.671875 123.851562 187.6875 123.851562 187.710938 Z M 123.851562 187.820312 " fill-opacity="1" fill-rule="nonzero"/></g><g clip-path="url(#20dfa147aa)"><path fill="#02b79c" d="M 123.796875 187.515625 L 123.796875 187.605469 C 123.796875 187.625 123.773438 187.644531 123.742188 187.644531 L 123.605469 187.644531 C 123.574219 187.644531 123.550781 187.625 123.550781 187.605469 L 123.550781 187.515625 C 123.550781 187.496094 123.574219 187.476562 123.605469 187.476562 L 123.742188 187.476562 C 123.773438 187.476562 123.796875 187.496094 123.796875 187.515625 Z M 123.558594 187.605469 C 123.558594 187.621094 123.582031 187.636719 123.605469 187.636719 L 123.742188 187.636719 C 123.769531 187.636719 123.789062 187.621094 123.789062 187.605469 L 123.789062 187.515625 C 123.789062 187.496094 123.769531 187.484375 123.742188 187.484375 L 123.605469 187.484375 C 123.582031 187.484375 123.558594 187.496094 123.558594 187.515625 Z M 123.558594 187.605469 " fill-opacity="1" fill-rule="nonzero"/><path fill="#02b79c" d="M 123.953125 187.9375 L 123.953125 187.976562 C 123.953125 187.984375 123.941406 187.992188 123.925781 187.992188 L 123.867188 187.992188 C 123.855469 187.992188 123.839844 187.984375 123.839844 187.976562 L 123.839844 187.9375 C 123.839844 187.925781 123.855469 187.917969 123.867188 187.917969 L 123.925781 187.917969 C 123.941406 187.917969 123.953125 187.925781 123.953125 187.9375 Z M 123.851562 187.976562 C 123.851562 187.980469 123.859375 187.988281 123.867188 187.988281 L 123.925781 187.988281 C 123.9375 187.988281 123.945312 187.980469 123.945312 187.976562 L 123.945312 187.9375 C 123.945312 187.929688 123.9375 187.925781 123.925781 187.925781 L 123.867188 187.925781 C 123.859375 187.925781 123.851562 187.929688 123.851562 187.9375 Z M 123.851562 187.976562 " fill-opacity="1" fill-rule="nonzero"/></g><g clip-path="url(#b75cbf1c5c)"><path fill="#02b79c" d="M 124.257812 188.011719 L 124.257812 188.074219 C 124.257812 188.085938 124.242188 188.097656 124.21875 188.097656 L 124.132812 188.097656 C 124.109375 188.097656 124.09375 188.085938 124.09375 188.074219 L 124.09375 188.011719 C 124.09375 188 124.109375 187.988281 124.132812 187.988281 L 124.21875 187.988281 C 124.242188 187.988281 124.257812 188 124.257812 188.011719 Z M 124.101562 188.074219 C 124.101562 188.082031 124.113281 188.09375 124.132812 188.09375 L 124.21875 188.09375 C 124.234375 188.09375 124.25 188.082031 124.25 188.074219 L 124.25 188.011719 C 124.25 188.003906 124.234375 187.992188 124.21875 187.992188 L 124.132812 187.992188 C 124.113281 187.992188 124.101562 188.003906 124.101562 188.011719 Z M 124.101562 188.074219 " fill-opacity="1" fill-rule="nonzero"/></g><g clip-path="url(#574dd5137c)"><path fill="#02b79c" d="M 124.039062 188.171875 L 124.039062 188.210938 C 124.039062 188.21875 124.027344 188.226562 124.011719 188.226562 L 123.953125 188.226562 C 123.9375 188.226562 123.925781 188.21875 123.925781 188.210938 L 123.925781 188.171875 C 123.925781 188.160156 123.9375 188.152344 123.953125 188.152344 L 124.011719 188.152344 C 124.027344 188.152344 124.039062 188.160156 124.039062 188.171875 Z M 123.9375 188.210938 C 123.9375 188.214844 123.945312 188.222656 123.953125 188.222656 L 124.011719 188.222656 C 124.023438 188.222656 124.03125 188.214844 124.03125 188.210938 L 124.03125 188.171875 C 124.03125 188.164062 124.023438 188.160156 124.011719 188.160156 L 123.953125 188.160156 C 123.945312 188.160156 123.9375 188.164062 123.9375 188.171875 Z M 123.9375 188.210938 " fill-opacity="1" fill-rule="nonzero"/></g><path fill="#02b79c" d="M 55.28125 213.476562 L 55.28125 242.738281 C 55.28125 249.910156 49.449219 255.742188 42.273438 255.742188 L 13.007812 255.742188 C 5.832031 255.742188 -0.00390625 249.910156 -0.00390625 242.738281 L -0.00390625 213.476562 C -0.00390625 206.304688 5.832031 200.472656 13.007812 200.472656 L 42.28125 200.472656 C 49.449219 200.480469 55.28125 206.304688 55.28125 213.476562 Z M 2.96875 242.738281 C 2.96875 248.265625 7.464844 252.761719 12.996094 252.761719 L 42.273438 252.761719 C 47.804688 252.761719 52.300781 248.265625 52.300781 242.738281 L 52.300781 213.476562 C 52.300781 207.945312 47.804688 203.453125 42.273438 203.453125 L 13.007812 203.453125 C 7.472656 203.453125 2.976562 207.945312 2.976562 213.476562 L 2.976562 242.738281 Z M 2.96875 242.738281 " fill-opacity="1" fill-rule="nonzero"/><path fill="#02b79c" d="M 209.277344 117.085938 L 209.277344 171.144531 C 209.277344 183.6875 199.0625 193.898438 186.511719 193.898438 L 132.425781 193.898438 C 119.875 193.898438 109.660156 183.6875 109.660156 171.144531 L 109.660156 117.085938 C 109.660156 104.539062 119.875 94.332031 132.425781 94.332031 L 186.511719 94.332031 C 199.0625 94.332031 209.277344 104.539062 209.277344 117.085938 Z M 112.632812 171.144531 C 112.632812 182.046875 121.507812 190.925781 132.425781 190.925781 L 186.511719 190.925781 C 197.417969 190.925781 206.304688 182.054688 206.304688 171.144531 L 206.304688 117.085938 C 206.304688 106.183594 197.429688 97.300781 186.511719 97.300781 L 132.425781 97.300781 C 121.515625 97.300781 112.632812 106.171875 112.632812 117.085938 Z M 112.632812 171.144531 " fill-opacity="1" fill-rule="nonzero"/><g clip-path="url(#831b49e342)"><path fill="#02b79c" d="M 95.039062 20.382812 L 95.039062 64.855469 C 95.039062 75.320312 86.511719 83.839844 76.042969 83.839844 L 31.550781 83.839844 C 21.082031 83.839844 12.558594 75.320312 12.558594 64.855469 L 12.558594 20.382812 C 12.558594 9.917969 21.082031 1.398438 31.550781 1.398438 L 76.042969 1.398438 C 86.511719 1.398438 95.039062 9.917969 95.039062 20.382812 Z M 15.527344 64.855469 C 15.527344 73.6875 22.714844 80.867188 31.539062 80.867188 L 76.042969 80.867188 C 84.882812 80.867188 92.066406 73.6875 92.066406 64.855469 L 92.066406 20.382812 C 92.066406 11.550781 84.882812 4.371094 76.042969 4.371094 L 31.550781 4.371094 C 22.722656 4.371094 15.539062 11.550781 15.539062 20.382812 L 15.539062 64.855469 Z M 15.527344 64.855469 " fill-opacity="1" fill-rule="nonzero"/></g><path fill="#02b79c" d="M 146.375 229.578125 L 146.375 248.726562 C 146.375 253.699219 142.328125 257.742188 137.351562 257.742188 L 118.195312 257.742188 C 113.21875 257.742188 109.171875 253.699219 109.171875 248.726562 L 109.171875 229.578125 C 109.171875 224.605469 113.21875 220.558594 118.195312 220.558594 L 137.351562 220.558594 C 142.328125 220.558594 146.375 224.605469 146.375 229.578125 Z M 112.152344 248.726562 C 112.152344 252.058594 114.871094 254.773438 118.203125 254.773438 L 137.363281 254.773438 C 140.695312 254.773438 143.414062 252.058594 143.414062 248.726562 L 143.414062 229.578125 C 143.414062 226.246094 140.695312 223.53125 137.363281 223.53125 L 118.203125 223.53125 C 114.871094 223.53125 112.152344 226.246094 112.152344 229.578125 Z M 112.152344 248.726562 " fill-opacity="1" fill-rule="nonzero"/><g clip-path="url(#fe7e51f0d9)"><path fill="#02b79c" d="M 247.488281 267.769531 L 247.488281 297.027344 C 247.488281 304.199219 241.652344 310.03125 234.476562 310.03125 L 205.199219 310.03125 C 198.027344 310.03125 192.191406 304.199219 192.191406 297.027344 L 192.191406 267.769531 C 192.191406 260.597656 198.027344 254.765625 205.199219 254.765625 L 234.476562 254.765625 C 241.652344 254.773438 247.488281 260.597656 247.488281 267.769531 Z M 195.171875 297.027344 C 195.171875 302.558594 199.667969 307.054688 205.199219 307.054688 L 234.476562 307.054688 C 240.007812 307.054688 244.503906 302.558594 244.503906 297.027344 L 244.503906 267.769531 C 244.503906 262.238281 240.007812 257.742188 234.476562 257.742188 L 205.199219 257.742188 C 199.667969 257.742188 195.171875 262.238281 195.171875 267.769531 Z M 195.171875 297.027344 " fill-opacity="1" fill-rule="nonzero"/></g><g clip-path="url(#f8d7c19e0d)"><path fill="#02b79c" d="M 174.613281 345.710938 L 174.613281 364.863281 C 174.613281 369.835938 170.566406 373.878906 165.59375 373.878906 L 146.433594 373.878906 C 141.457031 373.878906 137.410156 369.835938 137.410156 364.863281 L 137.410156 345.710938 C 137.410156 340.738281 141.457031 336.695312 146.433594 336.695312 L 165.59375 336.695312 C 170.566406 336.695312 174.613281 340.738281 174.613281 345.710938 Z M 140.382812 364.863281 C 140.382812 368.191406 143.101562 370.910156 146.433594 370.910156 L 165.59375 370.910156 C 168.925781 370.910156 171.644531 368.191406 171.644531 364.863281 L 171.644531 345.710938 C 171.644531 342.382812 168.925781 339.664062 165.59375 339.664062 L 146.433594 339.664062 C 143.101562 339.664062 140.382812 342.382812 140.382812 345.710938 Z M 140.382812 364.863281 " fill-opacity="1" fill-rule="nonzero"/></g></svg>