<svg xmlns="http://www.w3.org/2000/svg" xmlns:xlink="http://www.w3.org/1999/xlink" width="500" zoomAndPan="magnify" viewBox="0 0 375 374.999991" height="500" preserveAspectRatio="xMidYMid meet" version="1.0"><defs><clipPath id="9533c2df71"><path d="M 81.425781 198 L 129 198 L 129 246 L 81.425781 246 Z M 81.425781 198 " clip-rule="nonzero"/></clipPath><clipPath id="6db7d33284"><path d="M 92 27.835938 L 163 27.835938 L 163 99 L 92 99 Z M 92 27.835938 " clip-rule="nonzero"/></clipPath><clipPath id="365864e856"><path d="M 246 245 L 293.675781 245 L 293.675781 293 L 246 293 Z M 246 245 " clip-rule="nonzero"/></clipPath><clipPath id="0b7cafebb7"><path d="M 199 315 L 232 315 L 232 347.335938 L 199 347.335938 Z M 199 315 " clip-rule="nonzero"/></clipPath></defs><g clip-path="url(#9533c2df71)"><path fill="#02b79c" d="M 128.839844 209.75 L 128.839844 234.832031 C 128.839844 240.976562 123.835938 245.976562 117.683594 245.976562 L 92.585938 245.976562 C 86.429688 245.976562 81.425781 240.976562 81.425781 234.832031 L 81.425781 209.75 C 81.425781 203.605469 86.429688 198.605469 92.585938 198.605469 L 117.691406 198.605469 C 123.835938 198.613281 128.839844 203.605469 128.839844 209.75 Z M 83.976562 234.832031 C 83.976562 239.570312 87.832031 243.421875 92.574219 243.421875 L 117.683594 243.421875 C 122.425781 243.421875 126.28125 239.570312 126.28125 234.832031 L 126.28125 209.75 C 126.28125 205.011719 122.425781 201.160156 117.683594 201.160156 L 92.585938 201.160156 C 87.839844 201.160156 83.984375 205.011719 83.984375 209.75 L 83.984375 234.832031 Z M 83.976562 234.832031 " fill-opacity="1" fill-rule="nonzero"/></g><path fill="#02b79c" d="M 260.898438 127.132812 L 260.898438 173.46875 C 260.898438 184.21875 252.140625 192.96875 241.378906 192.96875 L 194.996094 192.96875 C 184.230469 192.96875 175.472656 184.21875 175.472656 173.46875 L 175.472656 127.132812 C 175.472656 116.382812 184.230469 107.632812 194.996094 107.632812 L 241.378906 107.632812 C 252.140625 107.632812 260.898438 116.382812 260.898438 127.132812 Z M 178.019531 173.46875 C 178.019531 182.8125 185.632812 190.425781 194.996094 190.425781 L 241.378906 190.425781 C 250.730469 190.425781 258.351562 182.820312 258.351562 173.46875 L 258.351562 127.132812 C 258.351562 117.789062 250.742188 110.175781 241.378906 110.175781 L 194.996094 110.175781 C 185.640625 110.175781 178.019531 117.78125 178.019531 127.132812 Z M 178.019531 173.46875 " fill-opacity="1" fill-rule="nonzero"/><g clip-path="url(#6db7d33284)"><path fill="#02b79c" d="M 162.933594 44.25 L 162.933594 82.367188 C 162.933594 91.335938 155.621094 98.636719 146.644531 98.636719 L 108.484375 98.636719 C 99.507812 98.636719 92.199219 91.335938 92.199219 82.367188 L 92.199219 44.25 C 92.199219 35.28125 99.507812 27.976562 108.484375 27.976562 L 146.644531 27.976562 C 155.621094 27.976562 162.933594 35.28125 162.933594 44.25 Z M 94.746094 82.367188 C 94.746094 89.9375 100.90625 96.089844 108.476562 96.089844 L 146.644531 96.089844 C 154.222656 96.089844 160.382812 89.9375 160.382812 82.367188 L 160.382812 44.25 C 160.382812 36.679688 154.222656 30.523438 146.644531 30.523438 L 108.484375 30.523438 C 100.917969 30.523438 94.753906 36.679688 94.753906 44.25 L 94.753906 82.367188 Z M 94.746094 82.367188 " fill-opacity="1" fill-rule="nonzero"/></g><path fill="#02b79c" d="M 206.957031 223.550781 L 206.957031 239.964844 C 206.957031 244.226562 203.488281 247.691406 199.21875 247.691406 L 182.789062 247.691406 C 178.523438 247.691406 175.054688 244.226562 175.054688 239.964844 L 175.054688 223.550781 C 175.054688 219.289062 178.523438 215.820312 182.789062 215.820312 L 199.21875 215.820312 C 203.488281 215.820312 206.957031 219.289062 206.957031 223.550781 Z M 177.609375 239.964844 C 177.609375 242.820312 179.941406 245.148438 182.796875 245.148438 L 199.230469 245.148438 C 202.085938 245.148438 204.417969 242.820312 204.417969 239.964844 L 204.417969 223.550781 C 204.417969 220.695312 202.085938 218.367188 199.230469 218.367188 L 182.796875 218.367188 C 179.941406 218.367188 177.609375 220.695312 177.609375 223.550781 Z M 177.609375 239.964844 " fill-opacity="1" fill-rule="nonzero"/><g clip-path="url(#365864e856)"><path fill="#02b79c" d="M 293.667969 256.285156 L 293.667969 281.363281 C 293.667969 287.511719 288.664062 292.511719 282.511719 292.511719 L 257.40625 292.511719 C 251.25 292.511719 246.246094 287.511719 246.246094 281.363281 L 246.246094 256.285156 C 246.246094 250.136719 251.25 245.140625 257.40625 245.140625 L 282.511719 245.140625 C 288.664062 245.148438 293.667969 250.136719 293.667969 256.285156 Z M 248.804688 281.363281 C 248.804688 286.105469 252.660156 289.957031 257.40625 289.957031 L 282.511719 289.957031 C 287.253906 289.957031 291.113281 286.105469 291.113281 281.363281 L 291.113281 256.285156 C 291.113281 251.546875 287.253906 247.691406 282.511719 247.691406 L 257.40625 247.691406 C 252.660156 247.691406 248.804688 251.546875 248.804688 256.285156 Z M 248.804688 281.363281 " fill-opacity="1" fill-rule="nonzero"/></g><g clip-path="url(#0b7cafebb7)"><path fill="#02b79c" d="M 231.175781 323.09375 L 231.175781 339.503906 C 231.175781 343.765625 227.703125 347.234375 223.4375 347.234375 L 207.007812 347.234375 C 202.742188 347.234375 199.269531 343.765625 199.269531 339.503906 L 199.269531 323.09375 C 199.269531 318.828125 202.742188 315.363281 207.007812 315.363281 L 223.4375 315.363281 C 227.703125 315.363281 231.175781 318.828125 231.175781 323.09375 Z M 201.820312 339.503906 C 201.820312 342.359375 204.148438 344.6875 207.007812 344.6875 L 223.4375 344.6875 C 226.296875 344.6875 228.628906 342.359375 228.628906 339.503906 L 228.628906 323.09375 C 228.628906 320.238281 226.296875 317.910156 223.4375 317.910156 L 207.007812 317.910156 C 204.148438 317.910156 201.820312 320.238281 201.820312 323.09375 Z M 201.820312 339.503906 " fill-opacity="1" fill-rule="nonzero"/></g></svg>